<svg width="1440" height="2686" viewBox="0 0 1440 2686" fill="none" xmlns="http://www.w3.org/2000/svg">
<g filter="url(#filter0_f_60_226)">
<path d="M1224.58 1775.16C1398.84 1747.19 856.102 1194.04 830.055 1106C646.326 1454.02 352.383 1811.59 -33 1832.45C51.6312 2024.04 463.351 2107.42 569.832 2163.56C702.933 2233.73 778.95 2126.63 751.471 2017.82C723.992 1909.02 1006.75 1810.11 1224.58 1775.16Z" fill="#FF8D08" fill-opacity="0.4"/>
</g>
<g filter="url(#filter1_f_60_226)">
<ellipse cx="738.5" cy="469" rx="348.5" ry="312" fill="#FFE36D"/>
</g>
<g filter="url(#filter2_f_60_226)">
<ellipse cx="1538.5" cy="469" rx="348.5" ry="312" fill="#F15932"/>
</g>
<g filter="url(#filter3_f_60_226)">
<ellipse cx="-128.5" cy="469" rx="348.5" ry="312" fill="#09A4C6"/>
</g>
<defs>
<filter id="filter0_f_60_226" x="-533" y="606" width="2292" height="2080" filterUnits="userSpaceOnUse" color-interpolation-filters="sRGB">
<feFlood flood-opacity="0" result="BackgroundImageFix"/>
<feBlend mode="normal" in="SourceGraphic" in2="BackgroundImageFix" result="shape"/>
<feGaussianBlur stdDeviation="250" result="effect1_foregroundBlur_60_226"/>
</filter>
<filter id="filter1_f_60_226" x="190" y="-43" width="1097" height="1024" filterUnits="userSpaceOnUse" color-interpolation-filters="sRGB">
<feFlood flood-opacity="0" result="BackgroundImageFix"/>
<feBlend mode="normal" in="SourceGraphic" in2="BackgroundImageFix" result="shape"/>
<feGaussianBlur stdDeviation="100" result="effect1_foregroundBlur_60_226"/>
</filter>
<filter id="filter2_f_60_226" x="990" y="-43" width="1097" height="1024" filterUnits="userSpaceOnUse" color-interpolation-filters="sRGB">
<feFlood flood-opacity="0" result="BackgroundImageFix"/>
<feBlend mode="normal" in="SourceGraphic" in2="BackgroundImageFix" result="shape"/>
<feGaussianBlur stdDeviation="100" result="effect1_foregroundBlur_60_226"/>
</filter>
<filter id="filter3_f_60_226" x="-677" y="-43" width="1097" height="1024" filterUnits="userSpaceOnUse" color-interpolation-filters="sRGB">
<feFlood flood-opacity="0" result="BackgroundImageFix"/>
<feBlend mode="normal" in="SourceGraphic" in2="BackgroundImageFix" result="shape"/>
<feGaussianBlur stdDeviation="100" result="effect1_foregroundBlur_60_226"/>
</filter>
</defs>
</svg>
